<?xml version="1.0" standalone="no"?>
<!DOCTYPE svg PUBLIC "-//W3C//DTD SVG 20010904//EN"
 "http://www.w3.org/TR/2001/REC-SVG-20010904/DTD/svg10.dtd">
<svg version="1.0" xmlns="http://www.w3.org/2000/svg"
 width="50.000000pt" height="50.000000pt" viewBox="0 0 50.000000 50.000000"
 preserveAspectRatio="xMidYMid meet">

<g transform="translate(0.000000,50.000000) scale(0.100000,-0.100000)"
fill="#000000" stroke="none">
<path d="M148 473 c-24 -4 -28 -9 -28 -38 0 -18 4 -35 9 -37 5 -1 12 -36 16
-75 7 -70 6 -73 -14 -73 -17 0 -21 -6 -21 -30 0 -16 5 -30 10 -30 6 0 10 -35
10 -85 0 -84 0 -85 25 -85 24 0 25 3 25 60 l0 60 70 0 70 0 0 -60 c0 -57 1
-60 25 -60 25 0 25 1 25 85 0 50 4 85 10 85 6 0 10 14 10 30 0 24 -4 30 -21
30 -20 0 -21 3 -14 73 4 39 11 74 16 75 5 2 9 18 9 37 0 30 -3 33 -37 39 -40
6 -150 6 -195 -1z m190 -19 c12 -4 22 -11 22 -18 0 -7 -35 -11 -110 -11 -78 0
-110 3 -110 12 0 6 8 14 18 16 26 7 154 8 180 1z m-148 -124 c0 -44 -4 -80 -9
-80 -11 0 -26 134 -16 149 16 28 25 4 25 -69z m50 0 c0 -64 -3 -80 -15 -80
-12 0 -15 16 -15 80 0 64 3 80 15 80 12 0 15 -16 15 -80z m50 0 c0 -64 -3 -80
-15 -80 -12 0 -15 16 -15 80 0 64 3 80 15 80 12 0 15 -16 15 -80z m45 70 c9
-14 -6 -150 -16 -150 -5 0 -9 36 -9 80 0 73 9 97 25 70z m35 -180 c0 -6 -47
-10 -120 -10 -73 0 -120 4 -120 10 0 6 47 10 120 10 73 0 120 -4 120 -10z
m-213 -142 c-2 -24 -4 -7 -4 37 0 44 2 63 4 43 2 -21 2 -57 0 -80z m163 97 c0
-12 -14 -15 -70 -15 -56 0 -70 3 -70 15 0 12 14 15 70 15 56 0 70 -3 70 -15z
m27 -97 c-2 -24 -4 -7 -4 37 0 44 2 63 4 43 2 -21 2 -57 0 -80z"/>
</g>
</svg>
