<?xml version="1.0" standalone="no"?>
<!DOCTYPE svg PUBLIC "-//W3C//DTD SVG 20010904//EN"
 "http://www.w3.org/TR/2001/REC-SVG-20010904/DTD/svg10.dtd">
<svg version="1.0" xmlns="http://www.w3.org/2000/svg"
 width="64.000000pt" height="64.000000pt" viewBox="0 0 64.000000 64.000000"
 preserveAspectRatio="xMidYMid meet">

<g transform="translate(0.000000,64.000000) scale(0.100000,-0.100000)"
fill="#000000" stroke="none">
<path d="M165 606 c-11 -8 -28 -16 -37 -16 -26 0 -22 -17 6 -22 15 -3 27 2 35
14 14 22 44 24 61 3 10 -12 16 -13 27 -3 12 10 18 8 32 -10 12 -17 19 -20 28
-11 6 6 19 9 28 5 24 -9 17 -102 -7 -98 -14 2 -18 -4 -18 -33 0 -48 -45 -95
-90 -95 -49 0 -90 47 -90 103 0 54 12 65 65 60 98 -10 135 -11 135 -3 0 13
-30 20 -56 14 -13 -3 -30 -2 -37 3 -14 10 -70 9 -104 -2 -16 -5 -23 -15 -23
-32 0 -14 -4 -22 -11 -18 -5 4 -9 17 -8 28 3 41 -1 67 -10 67 -5 0 -9 -20 -9
-44 0 -31 5 -50 19 -62 10 -9 19 -25 19 -34 0 -10 11 -34 25 -54 19 -28 21
-36 9 -36 -28 0 -70 -28 -82 -55 -21 -46 -15 -70 23 -88 19 -9 35 -12 35 -7 0
6 -11 16 -25 22 -52 24 -10 108 55 108 16 0 30 3 30 8 0 4 18 7 40 7 22 0 40
-3 40 -7 0 -5 14 -8 30 -8 37 0 80 -39 80 -73 0 -16 -9 -28 -33 -39 -30 -14
-47 -36 -61 -81 -5 -15 -15 -18 -58 -15 -46 3 -53 6 -58 27 -3 14 -11 26 -18
29 -15 5 -15 1 -2 -32 9 -24 8 -26 -20 -26 -35 0 -60 -23 -60 -56 0 -24 1 -24
95 -24 57 0 95 4 95 10 0 6 -35 10 -86 10 -76 0 -85 2 -82 18 3 15 18 17 138
17 120 0 135 -2 138 -17 3 -15 -4 -18 -42 -18 -25 0 -46 -4 -46 -10 0 -5 25
-10 55 -10 50 0 55 2 55 23 0 34 -15 49 -53 56 l-35 6 13 32 c9 20 28 39 49
50 39 18 45 41 24 88 -12 27 -54 55 -82 55 -12 0 -10 8 9 36 14 20 25 44 25
54 0 9 9 25 20 35 29 26 28 110 -1 125 -11 7 -27 9 -34 6 -7 -2 -19 2 -26 10
-6 8 -23 14 -38 14 -14 -1 -37 2 -51 5 -15 4 -33 0 -45 -9z"/>
<path d="M473 474 c-24 -14 -43 -34 -43 -43 0 -27 30 -61 53 -61 17 0 30 -14
52 -55 32 -58 40 -63 70 -41 18 13 18 15 2 40 -21 31 -43 36 -27 7 12 -24 13
-44 1 -36 -15 9 -62 97 -55 104 3 3 11 -2 18 -12 18 -23 29 -22 21 3 -3 10 -1
29 5 40 9 17 7 26 -10 50 -26 36 -33 36 -87 4z m75 -18 c10 -22 8 -27 -24 -45
-43 -26 -51 -26 -64 -2 -14 28 -14 28 28 50 47 26 47 26 60 -3z"/>
<path d="M160 460 c0 -5 12 -10 26 -10 24 0 26 -3 21 -29 -5 -21 -2 -31 10
-35 21 -8 21 -8 15 42 -4 40 -5 42 -38 42 -19 0 -34 -4 -34 -10z"/>
<path d="M250 460 c0 -5 14 -10 30 -10 17 0 30 5 30 10 0 6 -13 10 -30 10 -16
0 -30 -4 -30 -10z"/>
<path d="M400 395 c0 -8 -14 -22 -30 -30 -17 -9 -28 -20 -25 -25 3 -5 20 -1
37 10 17 10 37 16 44 13 18 -6 17 7 0 30 -16 21 -26 22 -26 2z"/>
<path d="M140 269 c0 -5 11 -9 24 -9 37 0 56 -10 56 -31 0 -10 5 -19 10 -19 6
0 10 9 10 19 0 21 19 31 56 31 13 0 24 4 24 9 0 5 -40 9 -90 9 -50 0 -90 -4
-90 -9z"/>
<path d="M203 176 c-35 -17 -27 -24 27 -24 50 0 65 10 33 22 -10 3 -22 8 -28
10 -5 2 -20 -2 -32 -8z"/>
</g>
</svg>
