<?xml version="1.0" standalone="no"?>
<!DOCTYPE svg PUBLIC "-//W3C//DTD SVG 20010904//EN"
 "http://www.w3.org/TR/2001/REC-SVG-20010904/DTD/svg10.dtd">
<svg version="1.0" xmlns="http://www.w3.org/2000/svg"
 width="50.000000pt" height="50.000000pt" viewBox="0 0 50.000000 50.000000"
 preserveAspectRatio="xMidYMid meet">

<g transform="translate(0.000000,50.000000) scale(0.100000,-0.100000)"
fill="#000000" stroke="none">
<path d="M0 335 c0 -19 5 -35 10 -35 6 0 10 -57 10 -150 l0 -150 34 0 c30 0
35 3 38 28 l3 27 155 0 155 0 3 -27 c3 -25 8 -28 38 -28 l34 0 0 150 c0 93 4
150 10 150 6 0 10 16 10 35 l0 35 -250 0 -250 0 0 -35z m480 0 c0 -13 -32 -15
-230 -15 -198 0 -230 2 -230 15 0 13 32 15 230 15 198 0 230 -2 230 -15z m-20
-85 l0 -50 -210 0 -210 0 0 50 0 50 210 0 210 0 0 -50z m0 -120 l0 -50 -210 0
-210 0 0 50 0 50 210 0 210 0 0 -50z m-390 -90 c0 -11 -7 -20 -15 -20 -8 0
-15 9 -15 20 0 11 7 20 15 20 8 0 15 -9 15 -20z m390 0 c0 -11 -7 -20 -15 -20
-8 0 -15 9 -15 20 0 11 7 20 15 20 8 0 15 -9 15 -20z"/>
<path d="M210 250 c0 -5 18 -10 40 -10 22 0 40 5 40 10 0 6 -18 10 -40 10 -22
0 -40 -4 -40 -10z"/>
<path d="M210 130 c0 -5 18 -10 40 -10 22 0 40 5 40 10 0 6 -18 10 -40 10 -22
0 -40 -4 -40 -10z"/>
</g>
</svg>
