<?xml version="1.0" standalone="no"?>
<!DOCTYPE svg PUBLIC "-//W3C//DTD SVG 20010904//EN"
 "http://www.w3.org/TR/2001/REC-SVG-20010904/DTD/svg10.dtd">
<svg version="1.0" xmlns="http://www.w3.org/2000/svg"
 width="64.000000pt" height="64.000000pt" viewBox="0 0 64.000000 64.000000"
 preserveAspectRatio="xMidYMid meet">

<g transform="translate(0.000000,64.000000) scale(0.100000,-0.100000)"
fill="#000000" stroke="none">
<path d="M105 608 c-3 -7 -4 -141 -3 -298 l3 -285 215 0 215 0 0 295 0 295
-213 3 c-166 2 -214 0 -217 -10z m95 -17 c0 -38 -47 -101 -75 -101 -3 0 -5 25
-5 55 l0 55 40 0 c22 0 40 -4 40 -9z m70 -25 c0 -40 -42 -100 -107 -154 l-43
-35 0 47 c0 25 4 46 9 46 22 0 72 55 82 91 10 31 17 39 36 39 20 0 23 -5 23
-34z m90 10 c0 -41 -52 -123 -145 -230 l-90 -104 -3 56 c-3 52 -1 58 25 77 92
67 143 135 143 195 0 28 3 30 35 30 30 0 35 -3 35 -24z m98 16 c-1 -5 -23 -47
-47 -94 -71 -139 -67 -255 15 -389 19 -31 34 -59 34 -63 0 -3 -13 -6 -30 -6
-25 0 -33 8 -64 63 -76 136 -84 248 -27 361 17 33 34 78 38 99 5 35 7 37 45
37 22 0 38 -4 36 -8z m62 -29 c0 -23 -11 -53 -30 -83 -63 -99 -63 -221 0 -320
36 -55 42 -120 12 -120 -13 0 -33 28 -68 96 -48 93 -49 98 -49 183 0 86 1 90
50 184 34 67 55 97 67 97 14 0 18 -8 18 -37z m-2 -325 l-3 -83 -25 45 c-20 37
-25 59 -25 120 0 61 5 83 25 120 l25 45 3 -82 c2 -46 2 -120 0 -165z m-233 74
c0 -83 17 -140 67 -225 l27 -47 -34 0 c-33 0 -34 1 -59 80 -14 45 -28 97 -32
116 -3 19 -11 33 -16 32 -16 -6 -76 -109 -98 -168 l-19 -55 -1 76 c0 68 3 80
28 115 24 33 131 154 136 154 0 0 1 -35 1 -78z m-13 -270 c-19 -5 -28 11 -36
59 -3 22 -10 39 -16 39 -5 0 -17 -22 -27 -50 -12 -34 -23 -50 -35 -50 -16 0
-16 3 -4 38 16 44 53 121 69 140 8 10 17 -10 37 -80 22 -78 24 -94 12 -96z
m-54 -1 c-15 -6 -20 7 -12 31 l8 23 6 -25 c3 -14 2 -27 -2 -29z"/>
</g>
</svg>
